<svg width="567" height="171" xmlns="http://www.w3.org/2000/svg"><g fill="#1ED760" fill-rule="evenodd"><path d="M137.532 76.477c-26.994-16.031-71.52-17.505-97.289-9.684-4.138 1.255-8.514-1.081-9.768-5.219a7.835 7.835 0 0 1 5.221-9.771c29.581-8.979 78.755-7.245 109.831 11.202a7.831 7.831 0 0 1 2.737 10.733c-2.208 3.722-7.019 4.949-10.732 2.739zm-.884 23.744c-1.893 3.073-5.911 4.036-8.98 2.15-22.505-13.834-56.822-17.841-83.447-9.759-3.453 1.043-7.1-.904-8.148-4.35a6.538 6.538 0 0 1 4.353-8.143c30.416-9.229 68.226-4.759 94.074 11.126 3.069 1.89 4.035 5.91 2.148 8.976zm-10.247 22.803a5.215 5.215 0 0 1-7.176 1.737c-19.666-12.019-44.418-14.734-73.568-8.075a5.217 5.217 0 0 1-6.249-3.925 5.212 5.212 0 0 1 3.925-6.249c31.9-7.293 59.264-4.154 81.337 9.334a5.22 5.22 0 0 1 1.731 7.178zM87.996 2.237c-46.25 0-83.744 37.492-83.744 83.742 0 46.253 37.494 83.744 83.744 83.744 46.251 0 83.743-37.491 83.743-83.744 0-46.25-37.492-83.742-83.743-83.742zM232.089 79.546c-14.459-3.448-17.034-5.868-17.034-10.952 0-4.805 4.524-8.037 11.25-8.037 6.52 0 12.984 2.455 19.763 7.509a.945.945 0 0 0 .715.174.933.933 0 0 0 .625-.386l7.06-9.952a.949.949 0 0 0-.18-1.288c-8.067-6.473-17.151-9.62-27.769-9.62-15.612 0-26.517 9.369-26.517 22.774 0 14.375 9.407 19.465 25.663 23.394 13.836 3.187 16.171 5.856 16.171 10.63 0 5.289-4.722 8.577-12.321 8.577-8.439 0-15.324-2.843-23.025-9.512a.997.997 0 0 0-.695-.226.94.94 0 0 0-.649.334l-7.916 9.421a.94.94 0 0 0 .093 1.313c8.961 7.999 19.98 12.225 31.872 12.225 16.823 0 27.694-9.193 27.694-23.42 0-12.024-7.184-18.674-24.8-22.958M307.162 95.661c0 10.153-6.254 17.238-15.209 17.238-8.853 0-15.531-7.407-15.531-17.238 0-9.83 6.678-17.238 15.531-17.238 8.811 0 15.209 7.248 15.209 17.238zM294.95 65.286c-7.292 0-13.273 2.872-18.205 8.757v-6.624a.949.949 0 0 0-.947-.949h-12.946a.948.948 0 0 0-.946.949v73.602c0 .523.423.949.946.949h12.946a.949.949 0 0 0 .947-.949v-23.232c4.933 5.536 10.915 8.24 18.205 8.24 13.549 0 27.265-10.43 27.265-30.368 0-19.942-13.716-30.375-27.265-30.375zM357.373 113.005c-9.281 0-16.278-7.457-16.278-17.344 0-9.928 6.755-17.134 16.064-17.134 9.341 0 16.385 7.457 16.385 17.351 0 9.927-6.801 17.127-16.171 17.127zm0-47.719c-17.449 0-31.119 13.436-31.119 30.592 0 16.969 13.576 30.264 30.905 30.264 17.511 0 31.223-13.391 31.223-30.481 0-17.033-13.618-30.375-31.009-30.375zM425.644 66.47h-14.247V51.904a.946.946 0 0 0-.945-.948h-12.945a.95.95 0 0 0-.95.948V66.47h-6.225a.946.946 0 0 0-.943.949v11.127c0 .522.421.948.943.948h6.225v28.792c0 11.635 5.791 17.534 17.212 17.534 4.644 0 8.497-.959 12.128-3.018a.945.945 0 0 0 .479-.821v-10.596a.951.951 0 0 0-1.372-.85c-2.494 1.255-4.905 1.834-7.6 1.834-4.153 0-6.007-1.885-6.007-6.112V79.494h14.247a.946.946 0 0 0 .944-.948V67.419a.946.946 0 0 0-.944-.949M475.281 66.527v-1.789c0-5.263 2.018-7.61 6.544-7.61 2.699 0 4.867.536 7.295 1.346a.946.946 0 0 0 1.245-.902v-10.91a.948.948 0 0 0-.669-.909c-2.565-.762-5.847-1.546-10.761-1.546-11.959 0-18.279 6.734-18.279 19.467v2.74h-6.22a.952.952 0 0 0-.95.948v11.184c0 .522.428.948.95.948h6.22v44.41c0 .523.422.948.944.948h12.946a.95.95 0 0 0 .949-.948v-44.41h12.088l18.517 44.398c-2.102 4.665-4.169 5.593-6.991 5.593-2.281 0-4.683-.681-7.139-2.025a.972.972 0 0 0-.754-.071.959.959 0 0 0-.56.512l-4.388 9.627a.941.941 0 0 0 .407 1.225c4.581 2.481 8.717 3.54 13.827 3.54 9.56 0 14.844-4.454 19.503-16.434l22.461-58.04a.946.946 0 0 0-.879-1.292h-13.478a.951.951 0 0 0-.897.636L513.405 106.6l-15.123-39.463a.943.943 0 0 0-.884-.61h-22.117M446.505 66.47h-12.947a.95.95 0 0 0-.948.949v56.485c0 .523.425.948.948.948h12.947a.95.95 0 0 0 .948-.948V67.419a.95.95 0 0 0-.948-.949M440.097 40.751c-5.128 0-9.291 4.153-9.291 9.282 0 5.131 4.163 9.288 9.291 9.288 5.127 0 9.285-4.157 9.285-9.288 0-5.129-4.158-9.282-9.285-9.282M554.049 72.089h-2.372v3.025h2.372c1.184 0 1.891-.579 1.891-1.514 0-.984-.707-1.511-1.891-1.511zm1.538 4.315l2.577 3.608h-2.173l-2.32-3.309h-1.994v3.309h-1.819v-9.563h4.265c2.221 0 3.683 1.136 3.683 3.05 0 1.568-.906 2.526-2.219 2.905zm-2.02-9.138c-4.667 0-8.199 3.71-8.199 8.253 0 4.54 3.507 8.201 8.151 8.201 4.666 0 8.201-3.708 8.201-8.253 0-4.541-3.509-8.201-8.153-8.201zm-.048 17.365c-5.124 0-9.111-4.115-9.111-9.112 0-4.998 4.039-9.159 9.159-9.159a9.074 9.074 0 0 1 9.111 9.107c0 4.997-4.036 9.164-9.159 9.164z"/></g></svg>